<svg preserveAspectRatio="none" overflow="visible" style="display: block;" width="24" height="24" viewBox="0 0 24 24" fill="none" xmlns="http://www.w3.org/2000/svg">
<g id="Linear / School / Notebook">
<path id="Vector" d="M18.4656 4.81427L18.4917 5.56382V5.56382L18.4656 4.81427ZM15.6 5.19003L15.3849 4.47153V4.47153L15.6 5.19003ZM13.3391 6.24227L12.9634 5.59315V5.59315L13.3391 6.24227ZM5.58592 4.85998L5.53991 5.60857L5.58592 4.85998ZM8 5.19003L8.19136 4.46485V4.46485L8 5.19003ZM10.6258 6.30044L10.2752 6.96345V6.96345L10.6258 6.30044ZM13.3021 18.4555L13.6549 19.1173H13.6549L13.3021 18.4555ZM16 17.3068L15.8086 16.5816H15.8086L16 17.3068ZM18.3881 16.9783L18.4349 17.7269V17.7269L18.3881 16.9783ZM10.6979 18.4555L10.3451 19.1173L10.3451 19.1173L10.6979 18.4555ZM8 17.3068L8.19136 16.5816H8.19136L8 17.3068ZM5.61189 16.9783L5.56507 17.7269H5.56507L5.61189 16.9783ZM4 15.3149H4.75V6.39831H4H3.25V15.3149H4ZM20 15.3149H20.75V6.34663H20H19.25V15.3149H20ZM18.4656 4.81427L18.4395 4.06472C17.5269 4.09651 16.3202 4.19154 15.3849 4.47153L15.6 5.19003L15.8151 5.90852C16.5549 5.68705 17.5986 5.59493 18.4917 5.56382L18.4656 4.81427ZM15.6 5.19003L15.3849 4.47153C14.5714 4.71508 13.6636 5.18792 12.9634 5.59315L13.3391 6.24227L13.7148 6.8914C14.3929 6.49892 15.1764 6.09973 15.8151 5.90852L15.6 5.19003ZM5.58592 4.85998L5.53991 5.60857C6.31062 5.65594 7.17373 5.74766 7.80864 5.9152L8 5.19003L8.19136 4.46485C7.40785 4.2581 6.42341 4.16004 5.63193 4.1114L5.58592 4.85998ZM8 5.19003L7.80864 5.9152C8.56092 6.11372 9.49564 6.55123 10.2752 6.96345L10.6258 6.30044L10.9764 5.63742C10.1781 5.21533 9.11782 4.70932 8.19136 4.46485L8 5.19003ZM13.3021 18.4555L13.6549 19.1173C14.446 18.6956 15.4151 18.2368 16.1914 18.0319L16 17.3068L15.8086 16.5816C14.8546 16.8333 13.7573 17.3629 12.9493 17.7936L13.3021 18.4555ZM16 17.3068L16.1914 18.0319C16.819 17.8663 17.6701 17.7747 18.4349 17.7269L18.3881 16.9783L18.3413 16.2298C17.5551 16.279 16.5837 16.3771 15.8086 16.5816L16 17.3068ZM10.6979 18.4555L11.0507 17.7936C10.2427 17.3629 9.14541 16.8333 8.19136 16.5816L8 17.3068L7.80864 18.0319C8.58491 18.2368 9.55402 18.6956 10.3451 19.1173L10.6979 18.4555ZM8 17.3068L8.19136 16.5816C7.41626 16.3771 6.4449 16.279 5.6587 16.2298L5.61189 16.9783L5.56507 17.7269C6.32994 17.7747 7.181 17.8663 7.80864 18.0319L8 17.3068ZM20 15.3149H19.25C19.25 15.7785 18.8629 16.1972 18.3413 16.2298L18.3881 16.9783L18.4349 17.7269C19.6874 17.6485 20.75 16.629 20.75 15.3149H20ZM20 6.34663H20.75C20.75 5.09781 19.7539 4.01894 18.4395 4.06472L18.4656 4.81427L18.4917 5.56382C18.8921 5.54987 19.25 5.87953 19.25 6.34663H20ZM4 15.3149H3.25C3.25 16.629 4.31257 17.6485 5.56507 17.7269L5.61189 16.9783L5.6587 16.2298C5.1371 16.1972 4.75 15.7785 4.75 15.3149H4ZM13.3021 18.4555L12.9493 17.7936C12.3595 18.108 11.6405 18.108 11.0507 17.7936L10.6979 18.4555L10.3451 19.1173C11.3759 19.6668 12.6241 19.6668 13.6549 19.1173L13.3021 18.4555ZM13.3391 6.24227L12.9634 5.59315C12.353 5.94643 11.5931 5.96353 10.9764 5.63742L10.6258 6.30044L10.2752 6.96345C11.3553 7.5346 12.6639 7.49959 13.7148 6.8914L13.3391 6.24227ZM4 6.39831H4.75C4.75 5.92076 5.12517 5.58308 5.53991 5.60857L5.58592 4.85998L5.63193 4.1114C4.29291 4.0291 3.25 5.11879 3.25 6.39831H4Z" fill="#595959"/>
<path id="Vector_2" d="M12 7.0832V19.1999" stroke="#595959" stroke-width="1.5"/>
<path id="Vector_3" d="M6.4 9.6L9.6 10.4" stroke="#595959" stroke-width="1.5" stroke-linecap="round"/>
<path id="Vector_4" d="M17.6 9.6L14.4 10.4" stroke="#595959" stroke-width="1.5" stroke-linecap="round"/>
<path id="Vector_5" d="M6.4 12.8L9.6 13.6" stroke="#595959" stroke-width="1.5" stroke-linecap="round"/>
<path id="Vector_6" d="M17.6 12.8L14.4 13.6" stroke="#595959" stroke-width="1.5" stroke-linecap="round"/>
</g>
</svg>
